<svg xmlns="http://www.w3.org/2000/svg" width="1800" height="2400" viewBox="0 0 1800 2400" fill="none">
  <defs>
    <linearGradient id="page" x1="0" y1="0" x2="1" y2="1">
      <stop offset="0" stop-color="#f0e2c3"/>
      <stop offset="0.55" stop-color="#e8d7b2"/>
      <stop offset="1" stop-color="#cfb986"/>
    </linearGradient>
    <filter id="paperNoise" x="-20%" y="-20%" width="140%" height="140%">
      <feTurbulence type="fractalNoise" baseFrequency="0.82" numOctaves="3" seed="13"/>
      <feComponentTransfer>
        <feFuncA type="table" tableValues="0 0.12"/>
      </feComponentTransfer>
    </filter>
  </defs>
  <path d="M96 70L1660 110L1716 2208L1608 2332L74 2250L96 70Z" fill="url(#page)" stroke="#d1b77d" stroke-width="8"/>
  <path d="M184 224L1576 254L1612 2066L1516 2162L160 2104L184 224Z" stroke="#8b2515" stroke-width="14"/>
  <path d="M232 272L1522 300L1554 2020L1464 2102L212 2050L232 272Z" stroke="#1d5f52" stroke-width="8"/>
  <rect x="306" y="416" width="1132" height="1368" rx="18" stroke="#8b2515" stroke-width="10"/>
  <rect x="346" y="456" width="1052" height="1288" rx="12" stroke="#1d5f52" stroke-width="5"/>
  <rect x="96" y="70" width="1620" height="2262" filter="url(#paperNoise)" opacity="0.45"/>
  <text x="902" y="1986" text-anchor="middle" fill="#6a4724" fill-opacity="0.58" font-family="Cinzel, serif" font-size="72" letter-spacing="26">ፍ ፡ ቅ ፡ ስ ፡ ሃ ፡ መ</text>
</svg>
