<svg xmlns="http://www.w3.org/2000/svg" width="3840" height="2160" viewBox="0 0 3840 2160" fill="none">
  <defs>
    <linearGradient id="bg" x1="0" y1="0" x2="1" y2="1">
      <stop offset="0" stop-color="#efe2c5"/>
      <stop offset="0.58" stop-color="#e5d4b0"/>
      <stop offset="1" stop-color="#cfba8d"/>
    </linearGradient>
    <radialGradient id="warm1" cx="0" cy="0" r="1" gradientUnits="userSpaceOnUse" gradientTransform="translate(620 380) rotate(20) scale(1300 980)">
      <stop stop-color="#fff2d5" stop-opacity="0.82"/>
      <stop offset="1" stop-color="#fff2d5" stop-opacity="0"/>
    </radialGradient>
    <radialGradient id="warm2" cx="0" cy="0" r="1" gradientUnits="userSpaceOnUse" gradientTransform="translate(3030 1720) rotate(-18) scale(1400 1020)">
      <stop stop-color="#ab6f28" stop-opacity="0.16"/>
      <stop offset="1" stop-color="#ab6f28" stop-opacity="0"/>
    </radialGradient>
    <filter id="paper" x="-20%" y="-20%" width="140%" height="140%">
      <feTurbulence type="fractalNoise" baseFrequency="0.9" numOctaves="4" seed="7"/>
      <feColorMatrix type="saturate" values="0.2"/>
      <feComponentTransfer>
        <feFuncA type="table" tableValues="0 0.12"/>
      </feComponentTransfer>
    </filter>
    <filter id="grain" x="-20%" y="-20%" width="140%" height="140%">
      <feTurbulence type="fractalNoise" baseFrequency="0.65" numOctaves="2" seed="11"/>
      <feComponentTransfer>
        <feFuncA type="table" tableValues="0 0.08"/>
      </feComponentTransfer>
    </filter>
    <linearGradient id="edge" x1="0" y1="0" x2="1" y2="0">
      <stop offset="0" stop-color="#69390f" stop-opacity="0.32"/>
      <stop offset="0.08" stop-color="#69390f" stop-opacity="0"/>
      <stop offset="0.92" stop-color="#69390f" stop-opacity="0"/>
      <stop offset="1" stop-color="#69390f" stop-opacity="0.3"/>
    </linearGradient>
  </defs>
  <rect width="3840" height="2160" fill="url(#bg)"/>
  <rect width="3840" height="2160" fill="url(#warm1)"/>
  <rect width="3840" height="2160" fill="url(#warm2)"/>
  <rect x="48" y="42" width="3744" height="2076" rx="10" fill="url(#edge)"/>
  <rect width="3840" height="2160" filter="url(#paper)" opacity="0.55"/>
  <rect width="3840" height="2160" filter="url(#grain)" opacity="0.4"/>
  <path d="M0 1680C377 1612 545 1794 1006 1740C1481 1684 1575 1490 2086 1522C2537 1550 2798 1746 3840 1586V2160H0V1680Z" fill="#8b2515" opacity="0.045"/>
  <path d="M0 486C593 620 812 392 1321 436C1846 482 2325 765 2870 700C3231 657 3498 509 3840 412V0H0V486Z" fill="#1d5f52" opacity="0.05"/>
</svg>
